<?xml version="1.0" standalone="no"?>
<!DOCTYPE svg PUBLIC "-//W3C//DTD SVG 1.1//EN" "http://www.w3.org/Graphics/SVG/1.1/DTD/svg11.dtd" >
<svg xmlns="http://www.w3.org/2000/svg" xmlns:xlink="http://www.w3.org/1999/xlink" version="1.1">
<metadata>
Created by FontForge 20200427 at Sun Oct  7 20:09:33 2018
 By www
Copyright (c) 2018 by Vladimir Nikolic. All rights reserved.
</metadata>
<defs>
<font id="Biysk-Regular" horiz-adv-x="513" >
  <font-face 
    font-family="Biysk"
    font-weight="400"
    font-stretch="normal"
    units-per-em="1000"
    panose-1="0 0 0 0 0 0 0 0 0 0"
    ascent="800"
    descent="-200"
    x-height="449"
    cap-height="559"
    bbox="13 -196 680 694"
    underline-thickness="50"
    underline-position="-100"
    unicode-range="U+000D-007A"
  />
<missing-glyph horiz-adv-x="370" 
 />
    <glyph glyph-name=".notdef" horiz-adv-x="370" 
 />
    <glyph glyph-name="NULL" horiz-adv-x="0" 
 />
    <glyph glyph-name="NULL" horiz-adv-x="0" 
 />
    <glyph glyph-name="nonmarkingreturn" unicode="&#xd;" horiz-adv-x="370" 
 />
    <glyph glyph-name="space" unicode=" " horiz-adv-x="370" 
 />
    <glyph glyph-name="E" unicode="E" horiz-adv-x="482" 
d="M452 322q0 -2 0.5 -3t0.5 -3q0 -4 -1 -5q0 -4 -1 -5v-1q-2 -2 -2 -4l-1 -1q-1 -1 -1 -2t-2 -2q-1 -2 -2 -2.5t-2 -1.5l-4 -2q0 -1 -1 -1t-2 -1l-337 -128q10 -25 25.5 -42t32 -28t30.5 -16.5t21 -7.5q21 -7 47 -7q13 0 31 3t37 11.5t38 25t35 43.5q8 15 26 15q9 0 14 -4
q11 -6 14 -17.5t-3 -22.5q-31 -54 -82 -84q-50 -29 -109 -29q-33 0 -64 9q-77 21 -121 81q-45 61 -43 140q2 80 49 138q47 57 124 76q14 3 27.5 5t27.5 2q63 0 114.5 -32t81.5 -89v-2q1 -1 1 -2q1 -1 1 -4zM379 330q-15 20 -32.5 32t-34.5 18.5t-32.5 8.5t-27.5 2
q-10 0 -20 -1t-19 -3q-22 -5 -44.5 -17t-40.5 -31.5t-30 -46.5t-13 -63v-11z" />
    <glyph glyph-name="F" unicode="F" horiz-adv-x="262" 
d="M64 0q-12 0 -21 8.5t-9 20.5v440q0 38 11 76.5t31 69.5q22 36 55 56q37 23 79 23q13 0 21.5 -8.5t8.5 -21.5q0 -12 -8.5 -20.5t-21.5 -8.5q-34 0 -55 -18t-33 -38q-14 -23 -21.5 -52t-7.5 -58v-19h117q13 0 21.5 -9t8.5 -21t-8.5 -20.5t-21.5 -8.5h-117v-362
q0 -12 -8.5 -20.5t-20.5 -8.5z" />
    <glyph glyph-name="G" unicode="G" horiz-adv-x="509" 
d="M475 28q-1 -47 -16.5 -86.5t-45.5 -69.5q-26 -26 -61 -42.5t-73 -21.5q-8 -1 -15.5 -1.5t-15.5 -0.5q-36 0 -67 10q-17 5 -33 12.5t-30 17.5q-29 21 -51 53q-23 32 -34 76q-3 12 3 22.5t18 13.5q2 0 3.5 0.5t3.5 0.5q22 0 29 -22q9 -35 26 -58.5t39 -38.5t46.5 -21.5
t47.5 -6.5h11t11 1q27 4 53 16t46.5 32.5t33 49.5t12.5 67v43q-27 -30 -60 -48q-50 -26 -106 -26q-47 0 -87.5 17.5t-71.5 48.5t-48.5 71.5t-17.5 87.5q0 46 17.5 87t48.5 72t71.5 48.5t87.5 17.5q46 0 87 -17.5t72 -48.5t48.5 -72t17.5 -87v-196v-1zM250 59q34 0 64.5 13
t53 35.5t35.5 52.5t13 65q0 34 -13 64.5t-35.5 53t-53 35.5t-64.5 13t-64.5 -13t-53 -35.5t-35.5 -53t-13 -64.5q0 -35 13 -65t35.5 -52.5t53 -35.5t64.5 -13z" />
    <glyph glyph-name="H" unicode="H" horiz-adv-x="519" 
d="M67 0q-12 0 -20.5 8.5t-8.5 20.5v635q0 12 8.5 20.5t20.5 8.5t21 -8.5t9 -20.5v-288q25 28 60 47q49 26 106 26q46 0 87 -17.5t71.5 -48.5t48 -72t17.5 -87v-195q0 -12 -8.5 -20.5t-20.5 -8.5t-21 8.5t-9 20.5v195q0 34 -13 64.5t-35.5 53t-52.5 35.5t-64 13
q-35 0 -65 -13t-52.5 -35.5t-35.5 -53t-13 -64.5v-195q0 -12 -9 -20.5t-21 -8.5z" />
    <glyph glyph-name="I" unicode="I" horiz-adv-x="135" 
d="M67 489q-12 0 -20.5 8.5t-8.5 20.5v11q0 12 8.5 21t20.5 9t21 -9t9 -21v-11q0 -12 -9 -20.5t-21 -8.5zM67 0q-12 0 -20.5 8.5t-8.5 21.5v390q0 13 8.5 21.5t20.5 8.5t21 -8.5t9 -21.5v-390q0 -13 -9 -21.5t-21 -8.5z" />
    <glyph glyph-name="J" unicode="J" horiz-adv-x="253" 
d="M42 -182q-12 0 -20.5 8.5t-8.5 21.5q0 12 8.5 20.5t20.5 8.5q35 0 56 18t32 38q14 23 22 52t8 58v375q0 12 8.5 20.5t20.5 8.5t20.5 -8.5t8.5 -20.5v-375q0 -38 -10.5 -76.5t-30.5 -69.5q-22 -36 -55 -56q-37 -23 -80 -23zM189 486q-12 0 -20.5 8.5t-8.5 21.5v11
q0 12 8.5 20.5t20.5 8.5t20.5 -8.5t8.5 -20.5v-11q0 -13 -8.5 -21.5t-20.5 -8.5z" />
    <glyph glyph-name="K" unicode="K" horiz-adv-x="450" 
d="M69 0q-13 0 -21.5 8.5t-8.5 20.5v635q0 13 8.5 21.5t21.5 8.5q12 0 20.5 -8.5t8.5 -21.5v-410h95q34 0 64.5 13t53 35.5t35.5 53t13 64.5q0 12 9 20.5t21 8.5t20.5 -8.5t8.5 -20.5q0 -68 -37 -123q-29 -46 -77 -72q49 -28 77 -73q19 -27 28 -58.5t9 -64.5
q0 -12 -8.5 -20.5t-20.5 -8.5t-21 8.5t-9 20.5q0 34 -13 64.5t-35.5 53t-53 35.5t-64.5 13h-95v-166q0 -12 -8.5 -20.5t-20.5 -8.5z" />
    <glyph glyph-name="L" unicode="L" horiz-adv-x="134" 
d="M69 0q-12 0 -20.5 8.5t-8.5 20.5v635q0 12 8.5 21t20.5 9t20.5 -9t8.5 -21v-635q0 -12 -8.5 -20.5t-20.5 -8.5z" />
    <glyph glyph-name="M" unicode="M" horiz-adv-x="708" 
d="M65 0q-12 0 -21 8.5t-9 20.5v244q0 36 14 68t38 56t56 38t68 14q45 0 83.5 -21t63.5 -58q24 37 62.5 58t83.5 21q36 0 68 -14t56 -38t38 -56t14 -68v-244q0 -12 -8.5 -20.5t-20.5 -8.5t-21 8.5t-9 20.5v244q0 24 -9 45.5t-25 37.5t-37.5 25t-45.5 9t-45.5 -9t-37 -25
t-25 -37.5t-9.5 -45.5v-244q0 -12 -8.5 -20.5t-20.5 -8.5t-21 8.5t-9 20.5v244q0 24 -9 45.5t-25 37.5t-37.5 25t-45.5 9t-45.5 -9t-37 -25t-25 -37.5t-9.5 -45.5v-244q0 -12 -8.5 -20.5t-20.5 -8.5z" />
    <glyph glyph-name="N" unicode="N" horiz-adv-x="518" 
d="M63 0q-13 0 -21.5 9t-8.5 21v195q0 46 17.5 87t48.5 72t71.5 48.5t87.5 17.5q46 0 87 -17.5t72 -48.5t48.5 -72t17.5 -87v-195q0 -12 -8.5 -21t-21.5 -9q-12 0 -20.5 9t-8.5 21v195q0 34 -13 64.5t-35.5 53t-53 35.5t-64.5 13q-35 0 -65 -13t-52.5 -35.5t-35.5 -53
t-13 -64.5v-195q0 -12 -8.5 -21t-20.5 -9z" />
    <glyph glyph-name="O" unicode="O" horiz-adv-x="498" 
d="M250 0q-47 0 -87.5 17.5t-71.5 48t-48.5 71t-17.5 87.5q0 46 17.5 87t48.5 72t71.5 48.5t87.5 17.5q46 0 87 -17.5t72 -48.5t48.5 -72t17.5 -87q0 -47 -17.5 -87.5t-48.5 -71t-72 -48t-87 -17.5zM250 390q-34 0 -64.5 -13t-53 -35.5t-35.5 -53t-13 -64.5t13 -64.5
t35.5 -53t53 -35.5t64.5 -13t64.5 13t53 35.5t35.5 53t13 64.5t-13 64.5t-35.5 53t-53 35.5t-64.5 13z" />
    <glyph glyph-name="Q" unicode="Q" 
d="M478 -164q0 -13 -8.5 -21.5t-20.5 -8.5q-13 0 -21.5 8.5t-8.5 21.5v237q-25 -28 -60 -47q-50 -26 -106 -26q-47 0 -87.5 17.5t-71.5 48.5t-48.5 71.5t-17.5 87.5q0 46 17.5 87t48.5 72t71.5 48.5t87.5 17.5q46 0 87 -17.5t72 -48.5t48.5 -72t17.5 -87v-389zM253 59
q34 0 64.5 13t53 35.5t35.5 52.5t13 65q0 34 -13 64.5t-35.5 53t-53 35.5t-64.5 13t-64.5 -13t-53 -35.5t-35.5 -53t-13 -64.5q0 -35 13 -65t35.5 -52.5t53 -35.5t64.5 -13z" />
    <glyph glyph-name="R" unicode="R" horiz-adv-x="318" 
d="M68 0q-12 0 -21 8.5t-9 20.5v244q0 36 14 68t38 56t56 38t68 14h49q12 0 21 -8.5t9 -20.5t-9 -20.5t-21 -8.5h-49q-24 0 -45.5 -9.5t-37 -25.5t-25 -37.5t-9.5 -45.5v-244q0 -12 -8.5 -20.5t-20.5 -8.5z" />
    <glyph glyph-name="T" unicode="T" horiz-adv-x="280" 
d="M99 391v-166q0 -29 8 -58t22 -52q11 -20 32 -38t55 -18q13 0 21.5 -8.5t8.5 -20.5q0 -13 -8.5 -21.5t-21.5 -8.5q-42 0 -79 23q-33 20 -55 56q-20 31 -31 69.5t-11 76.5v440q0 12 9 20.5t21 8.5t20.5 -8.5t8.5 -20.5v-215h117q13 0 21.5 -8.5t8.5 -21.5q0 -12 -8.5 -20.5
t-21.5 -8.5h-117z" />
    <glyph glyph-name="P" unicode="P" 
d="M482 225q0 -47 -17.5 -87.5t-48.5 -71.5t-72 -48.5t-87 -17.5q-56 0 -105 26q-33 19 -61 48v-238q0 -12 -8.5 -21t-20.5 -9t-21 9t-9 21v389q0 46 17.5 87t48.5 72t71.5 48.5t87.5 17.5q46 0 87 -17.5t72 -48.5t48.5 -72t17.5 -87zM91 225q0 -35 13 -65t35.5 -52.5
t53 -35.5t64.5 -13t64.5 13t53 35.5t35.5 52.5t13 65q0 34 -13 64.5t-35.5 53t-53 35.5t-64.5 13t-64.5 -13t-53 -35.5t-35.5 -53t-13 -64.5z" />
    <glyph glyph-name="S" unicode="S" horiz-adv-x="441" 
d="M158 390q-28 0 -48 -19.5t-20 -48.5t20 -48.5t48 -19.5h127q26 0 49 -10t40.5 -27.5t27.5 -40.5t10 -49t-10 -49.5t-27.5 -40.5t-40.5 -27t-49 -10h-224q-13 0 -21.5 8.5t-8.5 20.5t8.5 20.5t21.5 8.5h224q28 0 48 20t20 49q0 28 -20 48t-48 20h-127q-26 0 -49.5 10
t-40.5 27t-27 40.5t-10 49.5t10 49t27 40.5t40.5 27.5t49.5 10h224q13 0 21.5 -8.5t8.5 -20.5q0 -13 -8.5 -21.5t-21.5 -8.5h-224v0z" />
    <glyph glyph-name="U" unicode="U" horiz-adv-x="518" 
d="M455 450q12 0 20.5 -8.5t8.5 -20.5v-196q0 -47 -17.5 -87.5t-48.5 -71.5t-72 -48.5t-87 -17.5q-47 0 -87.5 17.5t-71 48.5t-48 71.5t-17.5 87.5v196q0 12 8.5 20.5t20.5 8.5t20.5 -8.5t8.5 -20.5v-196q0 -34 13 -64.5t35.5 -53t53 -35.5t64.5 -13t64.5 13t53 35.5
t35.5 53t13 64.5v196q0 12 9 20.5t21 8.5z" />
    <glyph glyph-name="V" unicode="V" horiz-adv-x="477" 
d="M451 447q11 -6 15 -17.5t-1 -22.5l-196 -391q-8 -16 -26 -16t-26 16l-196 391q-5 11 -1.5 22.5t14.5 16.5q5 4 13 4q18 0 27 -17l169 -338l169 338q8 17 26 17q7 0 13 -3z" />
    <glyph glyph-name="W" unicode="W" horiz-adv-x="708" 
d="M649 450q12 0 20.5 -9t8.5 -21v-244q0 -36 -14 -68t-38 -56t-56 -38t-68 -14q-45 0 -83.5 21t-62.5 58q-25 -37 -63.5 -58t-83.5 -21q-36 0 -68 14t-56 38t-38 56t-14 68v244q0 12 9 21t21 9t20.5 -9t8.5 -21v-244q0 -24 9.5 -45.5t25 -37.5t37 -25t45.5 -9t45.5 9
t37.5 25t25 37.5t9 45.5v244q0 12 9 21t21 9t20.5 -9t8.5 -21v-244q0 -24 9.5 -45.5t25 -37.5t37 -25t45.5 -9t45.5 9t37.5 25t25 37.5t9 45.5v244q0 12 9 21t21 9z" />
    <glyph glyph-name="X" unicode="X" horiz-adv-x="467" 
d="M432 423q0 -13 -8 -21l-154 -176l154 -176q8 -8 8 -21q-2 -13 -10 -21q-11 -7 -20 -7q-12 0 -22 10l-149 170l-148 -170q-10 -10 -23 -10q-10 0 -19 7q-10 10 -10 21q-2 11 7 21l154 176l-154 176q-8 10 -7 21q0 11 10 21q9 7 19 7q13 0 23 -10l148 -170l149 170
q10 10 22 10q9 0 20 -7q8 -8 10 -21z" />
    <glyph glyph-name="Y" unicode="Y" horiz-adv-x="515" 
d="M452 449q13 0 21.5 -8.5t8.5 -20.5v-391q0 -48 -15.5 -88t-46.5 -70q-26 -26 -61 -43t-74 -22q-8 -1 -15 -1.5t-15 -0.5q-37 0 -67 10q-17 5 -33 12.5t-30 17.5q-31 21 -52 52q-22 34 -34 77q-3 10 4 22q6 11 18 14q2 0 3.5 0.5t3.5 0.5q10 0 18 -6.5t10 -16.5
q9 -34 26.5 -57.5t39.5 -38.5t46.5 -21.5t47.5 -6.5h11t11 1q27 4 53 16t46.5 32.5t33 49.5t12.5 67v44q-25 -28 -61 -47q-49 -26 -105 -26q-47 0 -87.5 17.5t-71.5 48t-48.5 71t-17.5 87.5v196q0 12 8.5 20.5t21.5 8.5q12 0 20.5 -8.5t8.5 -20.5v-196q0 -34 13 -64.5
t35.5 -53t53 -35.5t64.5 -13t64.5 13t53 35.5t35.5 53t13 64.5v196q0 12 8.5 20.5t20.5 8.5z" />
    <glyph glyph-name="Z" unicode="Z" horiz-adv-x="412" 
d="M384 30q0 -13 -8.5 -21.5t-20.5 -8.5h-293q-3 0 -5.5 0.5t-5.5 1.5q-1 1 -3 1v1q-2 0 -4 2l-2 2q-3 1 -3 4h-1q-1 1 -1.5 2t-1.5 2q0 2 -0.5 3t-0.5 2v1q-1 1 -1 5q-1 0 -1 3t1 3q0 4 1 6t1 2.5t1 2.5q1 0 1 1t1 2l258 344h-234q-13 0 -21.5 8.5t-8.5 20.5q0 13 8.5 21.5
t21.5 8.5h293q1 0 2 -0.5t2 -0.5q3 0 5 -1t2.5 -1t2.5 -1q1 -1 1.5 -1t1.5 -1h1q0 -1 1 -2l4 -4v-1q2 -2 3 -4l2 -4v-1q0 -1 0.5 -2t0.5 -3v-3v-4q-1 -1 -1 -2t-1 -3q0 -1 -2 -5q0 -1 -2 -3l-258 -344h235q12 0 20.5 -8.5t8.5 -20.5z" />
    <glyph glyph-name="zero" unicode="0" horiz-adv-x="498" 
d="M250 0q-47 0 -87.5 17.5t-71.5 48t-48.5 71t-17.5 87.5q0 46 17.5 87t48.5 72t71.5 48.5t87.5 17.5q46 0 87 -17.5t72 -48.5t48.5 -72t17.5 -87q0 -47 -17.5 -87.5t-48.5 -71t-72 -48t-87 -17.5zM250 390q-34 0 -64.5 -13t-53 -35.5t-35.5 -53t-13 -64.5t13 -64.5
t35.5 -53t53 -35.5t64.5 -13t64.5 13t53 35.5t35.5 53t13 64.5t-13 64.5t-35.5 53t-53 35.5t-64.5 13z" />
    <glyph glyph-name="one" unicode="1" horiz-adv-x="269" 
d="M53 244q-11 0 -21 8q-8 10 -8 21q0 13 8 21l147 147q8 8 21 8q3 0 5.5 -0.5t5.5 -1.5q18 -8 18 -27v-391q0 -12 -8.5 -20.5t-20.5 -8.5t-21 8.5t-9 20.5v320l-96 -97q-10 -8 -21 -8z" />
    <glyph glyph-name="two" unicode="2" horiz-adv-x="463" 
d="M34 420q0 12 8.5 20.5t20.5 8.5h244q26 0 49 -10t40.5 -27.5t27.5 -40.5t10 -49t-10 -49.5t-27.5 -40.5t-40.5 -27t-49 -10h-146q-29 0 -48.5 -19.5t-19.5 -48.5v-68h312q12 0 20.5 -9t8.5 -21t-8.5 -20.5t-20.5 -8.5h-342q-12 0 -20.5 8.5t-8.5 20.5v98q0 26 10 49
t27 40.5t40.5 27.5t49.5 10h146q29 0 48.5 20t19.5 48q0 29 -19.5 49t-48.5 20h-244q-12 0 -20.5 8.5t-8.5 20.5z" />
    <glyph glyph-name="three" unicode="3" horiz-adv-x="474" 
d="M435 322q0 -29 -12 -54t-34 -44q22 -18 34 -43t12 -54q0 -26 -10 -49.5t-27.5 -40.5t-40.5 -27t-49 -10h-244q-12 0 -21 8.5t-9 20.5t9 21t21 9h244q29 0 48.5 19.5t19.5 48.5q0 28 -19.5 48t-48.5 20h-146q-13 0 -21.5 8.5t-8.5 20.5q0 13 8.5 21.5t21.5 8.5h146
q29 0 48.5 19.5t19.5 48.5t-19.5 48.5t-48.5 19.5h-244q-12 0 -21 9t-9 21t9 20.5t21 8.5h244q26 0 49 -10t40.5 -27.5t27.5 -40.5t10 -49z" />
    <glyph glyph-name="four" unicode="4" horiz-adv-x="434" 
d="M52 97q-19 0 -26 17q-4 8 -3 16.5t7 15.5l244 292q0 2 2 2l3 3l1 1l4 2l4 2h1h1q1 0 1.5 0.5t2.5 0.5h2q4 0 5 -1q3 0 6 -1q4 -2 5 -2v-1h1l2 -2q1 0 2 -1q1 -2 3 -4q0 -1 1 -1l2 -4q1 -2 1 -4l1 -1v-1q0 -2 1 -4v-2v-264h54q12 0 21 -8.5t9 -20.5q0 -13 -9 -21.5
t-21 -8.5h-54v-68q0 -12 -8.5 -20.5t-21.5 -8.5q-12 0 -20.5 8.5t-8.5 20.5v68h-215zM115 156h152v182z" />
    <glyph glyph-name="five" unicode="5" horiz-adv-x="465" 
d="M34 420q0 13 8.5 21.5t20.5 8.5h342q12 0 20.5 -8.5t8.5 -21.5q0 -12 -8.5 -20.5t-20.5 -8.5h-313v-136h215q26 0 49 -10t40.5 -27.5t27.5 -40.5t10 -50q0 -26 -10 -49.5t-27.5 -40.5t-40.5 -27t-49 -10h-244q-12 0 -20.5 8.5t-8.5 21.5q0 12 8.5 20.5t20.5 8.5h244
q29 0 49 20t20 48q0 29 -20 49t-49 20h-244q-12 0 -20.5 8.5t-8.5 20.5v195v0z" />
    <glyph glyph-name="six" unicode="6" horiz-adv-x="456" 
d="M156 0q-26 0 -49.5 10t-40.5 27t-27 40.5t-10 49.5v195q0 26 10 49t27 40.5t40.5 27.5t49.5 10h244q12 0 20.5 -8.5t8.5 -20.5t-8.5 -21t-20.5 -9h-244q-29 0 -48.5 -19.5t-19.5 -48.5v-68h214q26 0 49 -10t40.5 -27.5t27.5 -40.5t10 -49t-10 -49.5t-27.5 -40.5
t-40.5 -27t-49 -10h-146zM88 127q0 -29 19.5 -49t48.5 -20h146q29 0 49 20t20 49q0 28 -20 48t-49 20h-214v-68z" />
    <glyph glyph-name="seven" unicode="7" horiz-adv-x="408" 
d="M28 420q0 12 9 20.5t21 8.5h293q17 0 25 -14q9 -14 1 -28l-195 -391q-8 -16 -26 -16q-7 0 -14 3q-11 5 -14 17q-4 10 1 22l174 348h-245q-12 0 -21 9t-9 21z" />
    <glyph glyph-name="eight" unicode="8" horiz-adv-x="459" 
d="M430 323q0 -29 -12 -54.5t-34 -43.5q22 -18 34 -43.5t12 -54.5q0 -26 -10 -49.5t-27.5 -40.5t-40.5 -27t-49 -10h-147q-26 0 -49.5 10t-40.5 27t-27 40.5t-10 49.5q0 29 12 54.5t34 43.5q-22 18 -34 43.5t-12 54.5q0 26 10 49t27 40.5t40.5 27.5t49.5 10h147q26 0 49 -10
t40.5 -27.5t27.5 -40.5t10 -49zM303 59q28 0 48 20t20 48q0 29 -20 48.5t-48 19.5h-147q-28 0 -48 -19.5t-20 -48.5q0 -28 20 -48t48 -20h147zM303 254q28 0 48 20t20 49q0 28 -20 48t-48 20h-147q-28 0 -48 -20t-20 -48q0 -29 20 -49t48 -20h147z" />
    <glyph glyph-name="nine" unicode="9" horiz-adv-x="464" 
d="M304 59q29 0 49 20t20 48v69h-215q-26 0 -49.5 10t-40.5 27t-27 40.5t-10 49.5t10 49t27 40.5t40.5 27.5t49.5 10h146q26 0 49 -10t40.5 -27.5t27.5 -40.5t10 -49v-196q0 -26 -10 -49.5t-27.5 -40.5t-40.5 -27t-49 -10h-244q-12 0 -20.5 9t-8.5 21t8.5 20.5t20.5 8.5h244
zM373 255v68q0 28 -20 48t-49 20h-146q-29 0 -48.5 -20t-19.5 -48q0 -29 19.5 -48.5t48.5 -19.5h215z" />
    <glyph glyph-name="question" unicode="?" horiz-adv-x="454" 
d="M298 450q26 0 49 -10t40.5 -27.5t27.5 -40.5t10 -49q0 -27 -10 -50t-27.5 -40.5t-40.5 -27.5t-49 -10q-29 0 -48.5 -19.5t-19.5 -48.5q0 -12 -9 -20.5t-21 -8.5t-20.5 8.5t-8.5 20.5q0 26 10 49t27 40.5t40.5 27.5t49.5 10q28 0 48 20t20 49q0 28 -20 48t-48 20h-244
q-13 0 -21.5 8.5t-8.5 20.5q0 13 8.5 21.5t21.5 8.5h244zM200 70q12 0 21 -8.5t9 -20.5v-11q0 -13 -9 -21.5t-21 -8.5t-20.5 8.5t-8.5 21.5v11q0 12 8.5 20.5t20.5 8.5z" />
    <glyph glyph-name="colon" unicode=":" horiz-adv-x="106" 
d="M56 70q12 0 21 -8.5t9 -20.5v-11q0 -13 -9 -21.5t-21 -8.5t-20.5 8.5t-8.5 21.5v11q0 12 8.5 20.5t20.5 8.5zM56 439q12 0 21 -8.5t9 -20.5v-11q0 -13 -9 -21.5t-21 -8.5t-20.5 8.5t-8.5 21.5v11q0 12 8.5 20.5t20.5 8.5z" />
    <glyph glyph-name="semicolon" unicode=";" horiz-adv-x="106" 
d="M56 439q12 0 21 -8.5t9 -20.5v-11q0 -13 -9 -21.5t-21 -8.5t-20.5 8.5t-8.5 21.5v11q0 12 8.5 20.5t20.5 8.5zM56 70q12 0 21 -8.5t9 -20.5v-97q0 -13 -9 -21.5t-21 -8.5t-20.5 8.5t-8.5 21.5v97q0 12 8.5 20.5t20.5 8.5z" />
    <glyph glyph-name="comma" unicode="," horiz-adv-x="106" 
d="M56 70q12 0 21 -8.5t9 -20.5v-97q0 -13 -9 -21.5t-21 -8.5t-20.5 8.5t-8.5 21.5v97q0 12 8.5 20.5t20.5 8.5z" />
    <glyph glyph-name="period" unicode="." horiz-adv-x="117" 
d="M56 70q12 0 21 -8.5t9 -20.5v-11q0 -13 -9 -21.5t-21 -8.5t-20.5 8.5t-8.5 21.5v11q0 12 8.5 20.5t20.5 8.5z" />
    <glyph glyph-name="exclam" unicode="!" horiz-adv-x="129" 
d="M64 450q12 0 21 -8.5t9 -21.5v-293q0 -12 -9 -20.5t-21 -8.5t-20.5 8.5t-8.5 20.5v293q0 13 8.5 21.5t20.5 8.5zM64 70q12 0 21 -8.5t9 -20.5v-11q0 -13 -9 -21.5t-21 -8.5t-20.5 8.5t-8.5 21.5v11q0 12 8.5 20.5t20.5 8.5z" />
    <glyph glyph-name="a" unicode="a" horiz-adv-x="492" 
d="M350 27q-24 -13 -50.5 -20t-54.5 -7q-47 0 -87.5 17.5t-71.5 48.5t-48.5 71.5t-17.5 87.5q0 46 17.5 87t48.5 72t71.5 48.5t87.5 17.5q46 0 87 -17.5t72 -48.5t48.5 -72t17.5 -87v-195q0 -12 -8.5 -21t-21.5 -9q-12 0 -20.5 9t-8.5 21v44q-25 -28 -61 -47zM79 225
q0 -34 13 -64.5t35.5 -53t53 -35.5t64.5 -13t64.5 13t53 35.5t35.5 53t13 64.5t-13 64.5t-35.5 53t-53 35.5t-64.5 13t-64.5 -13t-53 -35.5t-35.5 -53t-13 -64.5z" />
    <glyph glyph-name="b" unicode="b" horiz-adv-x="505" 
d="M256 450q46 0 87 -17.5t72 -48.5t48.5 -72t17.5 -87q0 -47 -17.5 -87.5t-48.5 -71.5t-72 -48.5t-87 -17.5q-47 0 -87.5 17.5t-71.5 48.5t-48.5 71.5t-17.5 87.5v439q0 13 9 21.5t21 8.5t20.5 -8.5t8.5 -21.5v-288q28 30 61 47q24 13 51 20t54 7zM256 59q34 0 64.5 13
t53 35.5t35.5 52.5t13 65q0 34 -13 64.5t-35.5 53t-53 35.5t-64.5 13t-64.5 -13t-53 -35.5t-35.5 -53t-13 -64.5q0 -35 13 -65t35.5 -52.5t53 -35.5t64.5 -13z" />
    <glyph glyph-name="c" unicode="c" horiz-adv-x="440" 
d="M183 376q-45 -20 -71.5 -60.5t-26.5 -90.5t26.5 -90.5t71.5 -60.5q33 -15 69 -15q62 0 109 42q10 7 20 7q12 0 22 -10q8 -9 7 -21.5t-10 -20.5q-32 -27 -70 -42q-39 -14 -78 -14q-47 0 -93 20q-62 28 -97 83t-35 122q0 68 35 122.5t97 82.5q46 20 93 20q39 0 78 -14
q38 -15 70 -42q8 -7 10 -21q0 -13 -7 -21q-10 -10 -22 -10t-20 8q-23 20 -51 30.5t-58 10.5q-36 0 -69 -15z" />
    <glyph glyph-name="d" unicode="d" horiz-adv-x="503" 
d="M250 450q56 0 106 -27q35 -19 60 -47v289q0 12 8.5 20.5t21.5 8.5q12 0 20.5 -8.5t8.5 -20.5v-440q0 -47 -17.5 -87.5t-48.5 -71.5t-72 -48.5t-87 -17.5q-47 0 -87.5 17.5t-71.5 48.5t-48.5 71.5t-17.5 87.5q0 46 17.5 87t48.5 72t71.5 48.5t87.5 17.5zM416 225
q0 34 -13 64.5t-35.5 53t-53 35.5t-64.5 13t-64.5 -13t-53 -35.5t-35.5 -53t-13 -64.5q0 -35 13 -65t35.5 -52.5t53 -35.5t64.5 -13t64.5 13t53 35.5t35.5 52.5t13 65z" />
    <glyph glyph-name="e" unicode="e" horiz-adv-x="482" 
d="M452 322q0 -2 0.5 -3t0.5 -3q0 -4 -1 -5q0 -4 -1 -5v-1q-2 -2 -2 -4l-1 -1q-1 -1 -1 -2t-2 -2q-1 -2 -2 -2.5t-2 -1.5l-4 -2q0 -1 -1 -1t-2 -1l-337 -128q10 -25 25.5 -42t32 -28t30.5 -16.5t21 -7.5q21 -7 47 -7q13 0 31 3t37 11.5t38 25t35 43.5q8 15 26 15q9 0 14 -4
q11 -6 14 -17.5t-3 -22.5q-31 -54 -82 -84q-50 -29 -109 -29q-33 0 -64 9q-77 21 -121 81q-45 61 -43 140q2 80 49 138q47 57 124 76q14 3 27.5 5t27.5 2q63 0 114.5 -32t81.5 -89v-2q1 -1 1 -2q1 -1 1 -4zM379 330q-15 20 -32.5 32t-34.5 18.5t-32.5 8.5t-27.5 2
q-10 0 -20 -1t-19 -3q-22 -5 -44.5 -17t-40.5 -31.5t-30 -46.5t-13 -63v-11z" />
    <glyph glyph-name="f" unicode="f" horiz-adv-x="262" 
d="M64 0q-12 0 -21 8.5t-9 20.5v440q0 38 11 76.5t31 69.5q22 36 55 56q37 23 79 23q13 0 21.5 -8.5t8.5 -21.5q0 -12 -8.5 -20.5t-21.5 -8.5q-34 0 -55 -18t-33 -38q-14 -23 -21.5 -52t-7.5 -58v-19h117q13 0 21.5 -9t8.5 -21t-8.5 -20.5t-21.5 -8.5h-117v-362
q0 -12 -8.5 -20.5t-20.5 -8.5z" />
    <glyph glyph-name="g" unicode="g" horiz-adv-x="509" 
d="M475 28q-1 -47 -16.5 -86.5t-45.5 -69.5q-26 -26 -61 -42.5t-73 -21.5q-8 -1 -15.5 -1.5t-15.5 -0.5q-36 0 -67 10q-17 5 -33 12.5t-30 17.5q-29 21 -51 53q-23 32 -34 76q-3 12 3 22.5t18 13.5q2 0 3.5 0.5t3.5 0.5q22 0 29 -22q9 -35 26 -58.5t39 -38.5t46.5 -21.5
t47.5 -6.5h11t11 1q27 4 53 16t46.5 32.5t33 49.5t12.5 67v43q-27 -30 -60 -48q-50 -26 -106 -26q-47 0 -87.5 17.5t-71.5 48.5t-48.5 71.5t-17.5 87.5q0 46 17.5 87t48.5 72t71.5 48.5t87.5 17.5q46 0 87 -17.5t72 -48.5t48.5 -72t17.5 -87v-196v-1zM250 59q34 0 64.5 13
t53 35.5t35.5 52.5t13 65q0 34 -13 64.5t-35.5 53t-53 35.5t-64.5 13t-64.5 -13t-53 -35.5t-35.5 -53t-13 -64.5q0 -35 13 -65t35.5 -52.5t53 -35.5t64.5 -13z" />
    <glyph glyph-name="h" unicode="h" horiz-adv-x="519" 
d="M67 0q-12 0 -20.5 8.5t-8.5 20.5v635q0 12 8.5 20.5t20.5 8.5t21 -8.5t9 -20.5v-288q25 28 60 47q49 26 106 26q46 0 87 -17.5t71.5 -48.5t48 -72t17.5 -87v-195q0 -12 -8.5 -20.5t-20.5 -8.5t-21 8.5t-9 20.5v195q0 34 -13 64.5t-35.5 53t-52.5 35.5t-64 13
q-35 0 -65 -13t-52.5 -35.5t-35.5 -53t-13 -64.5v-195q0 -12 -9 -20.5t-21 -8.5z" />
    <glyph glyph-name="i" unicode="i" horiz-adv-x="135" 
d="M67 489q-12 0 -20.5 8.5t-8.5 20.5v11q0 12 8.5 21t20.5 9t21 -9t9 -21v-11q0 -12 -9 -20.5t-21 -8.5zM67 0q-12 0 -20.5 8.5t-8.5 21.5v390q0 13 8.5 21.5t20.5 8.5t21 -8.5t9 -21.5v-390q0 -13 -9 -21.5t-21 -8.5z" />
    <glyph glyph-name="j" unicode="j" horiz-adv-x="253" 
d="M42 -182q-12 0 -20.5 8.5t-8.5 21.5q0 12 8.5 20.5t20.5 8.5q35 0 56 18t32 38q14 23 22 52t8 58v375q0 12 8.5 20.5t20.5 8.5t20.5 -8.5t8.5 -20.5v-375q0 -38 -10.5 -76.5t-30.5 -69.5q-22 -36 -55 -56q-37 -23 -80 -23zM189 486q-12 0 -20.5 8.5t-8.5 21.5v11
q0 12 8.5 20.5t20.5 8.5t20.5 -8.5t8.5 -20.5v-11q0 -13 -8.5 -21.5t-20.5 -8.5z" />
    <glyph glyph-name="k" unicode="k" horiz-adv-x="450" 
d="M69 0q-13 0 -21.5 8.5t-8.5 20.5v635q0 13 8.5 21.5t21.5 8.5q12 0 20.5 -8.5t8.5 -21.5v-410h95q34 0 64.5 13t53 35.5t35.5 53t13 64.5q0 12 9 20.5t21 8.5t20.5 -8.5t8.5 -20.5q0 -68 -37 -123q-29 -46 -77 -72q49 -28 77 -73q19 -27 28 -58.5t9 -64.5
q0 -12 -8.5 -20.5t-20.5 -8.5t-21 8.5t-9 20.5q0 34 -13 64.5t-35.5 53t-53 35.5t-64.5 13h-95v-166q0 -12 -8.5 -20.5t-20.5 -8.5z" />
    <glyph glyph-name="l" unicode="l" horiz-adv-x="134" 
d="M69 0q-12 0 -20.5 8.5t-8.5 20.5v635q0 12 8.5 21t20.5 9t20.5 -9t8.5 -21v-635q0 -12 -8.5 -20.5t-20.5 -8.5z" />
    <glyph glyph-name="m" unicode="m" horiz-adv-x="708" 
d="M65 0q-12 0 -21 8.5t-9 20.5v244q0 36 14 68t38 56t56 38t68 14q45 0 83.5 -21t63.5 -58q24 37 62.5 58t83.5 21q36 0 68 -14t56 -38t38 -56t14 -68v-244q0 -12 -8.5 -20.5t-20.5 -8.5t-21 8.5t-9 20.5v244q0 24 -9 45.5t-25 37.5t-37.5 25t-45.5 9t-45.5 -9t-37 -25
t-25 -37.5t-9.5 -45.5v-244q0 -12 -8.5 -20.5t-20.5 -8.5t-21 8.5t-9 20.5v244q0 24 -9 45.5t-25 37.5t-37.5 25t-45.5 9t-45.5 -9t-37 -25t-25 -37.5t-9.5 -45.5v-244q0 -12 -8.5 -20.5t-20.5 -8.5z" />
    <glyph glyph-name="n" unicode="n" horiz-adv-x="518" 
d="M63 0q-13 0 -21.5 9t-8.5 21v195q0 46 17.5 87t48.5 72t71.5 48.5t87.5 17.5q46 0 87 -17.5t72 -48.5t48.5 -72t17.5 -87v-195q0 -12 -8.5 -21t-21.5 -9q-12 0 -20.5 9t-8.5 21v195q0 34 -13 64.5t-35.5 53t-53 35.5t-64.5 13q-35 0 -65 -13t-52.5 -35.5t-35.5 -53
t-13 -64.5v-195q0 -12 -8.5 -21t-20.5 -9z" />
    <glyph glyph-name="o" unicode="o" horiz-adv-x="498" 
d="M250 0q-47 0 -87.5 17.5t-71.5 48t-48.5 71t-17.5 87.5q0 46 17.5 87t48.5 72t71.5 48.5t87.5 17.5q46 0 87 -17.5t72 -48.5t48.5 -72t17.5 -87q0 -47 -17.5 -87.5t-48.5 -71t-72 -48t-87 -17.5zM250 390q-34 0 -64.5 -13t-53 -35.5t-35.5 -53t-13 -64.5t13 -64.5
t35.5 -53t53 -35.5t64.5 -13t64.5 13t53 35.5t35.5 53t13 64.5t-13 64.5t-35.5 53t-53 35.5t-64.5 13z" />
    <glyph glyph-name="p" unicode="p" 
d="M482 225q0 -47 -17.5 -87.5t-48.5 -71.5t-72 -48.5t-87 -17.5q-56 0 -105 26q-33 19 -61 48v-238q0 -12 -8.5 -21t-20.5 -9t-21 9t-9 21v389q0 46 17.5 87t48.5 72t71.5 48.5t87.5 17.5q46 0 87 -17.5t72 -48.5t48.5 -72t17.5 -87zM91 225q0 -35 13 -65t35.5 -52.5
t53 -35.5t64.5 -13t64.5 13t53 35.5t35.5 52.5t13 65q0 34 -13 64.5t-35.5 53t-53 35.5t-64.5 13t-64.5 -13t-53 -35.5t-35.5 -53t-13 -64.5z" />
    <glyph glyph-name="q" unicode="q" 
d="M478 -164q0 -13 -8.5 -21.5t-20.5 -8.5q-13 0 -21.5 8.5t-8.5 21.5v237q-25 -28 -60 -47q-50 -26 -106 -26q-47 0 -87.5 17.5t-71.5 48.5t-48.5 71.5t-17.5 87.5q0 46 17.5 87t48.5 72t71.5 48.5t87.5 17.5q46 0 87 -17.5t72 -48.5t48.5 -72t17.5 -87v-389zM253 59
q34 0 64.5 13t53 35.5t35.5 52.5t13 65q0 34 -13 64.5t-35.5 53t-53 35.5t-64.5 13t-64.5 -13t-53 -35.5t-35.5 -53t-13 -64.5q0 -35 13 -65t35.5 -52.5t53 -35.5t64.5 -13z" />
    <glyph glyph-name="r" unicode="r" horiz-adv-x="318" 
d="M68 0q-12 0 -21 8.5t-9 20.5v244q0 36 14 68t38 56t56 38t68 14h49q12 0 21 -8.5t9 -20.5t-9 -20.5t-21 -8.5h-49q-24 0 -45.5 -9.5t-37 -25.5t-25 -37.5t-9.5 -45.5v-244q0 -12 -8.5 -20.5t-20.5 -8.5z" />
    <glyph glyph-name="s" unicode="s" horiz-adv-x="441" 
d="M158 390q-28 0 -48 -19.5t-20 -48.5t20 -48.5t48 -19.5h127q26 0 49 -10t40.5 -27.5t27.5 -40.5t10 -49t-10 -49.5t-27.5 -40.5t-40.5 -27t-49 -10h-224q-13 0 -21.5 8.5t-8.5 20.5t8.5 20.5t21.5 8.5h224q28 0 48 20t20 49q0 28 -20 48t-48 20h-127q-26 0 -49.5 10
t-40.5 27t-27 40.5t-10 49.5t10 49t27 40.5t40.5 27.5t49.5 10h224q13 0 21.5 -8.5t8.5 -20.5q0 -13 -8.5 -21.5t-21.5 -8.5h-224v0z" />
    <glyph glyph-name="t" unicode="t" horiz-adv-x="280" 
d="M99 391v-166q0 -29 8 -58t22 -52q11 -20 32 -38t55 -18q13 0 21.5 -8.5t8.5 -20.5q0 -13 -8.5 -21.5t-21.5 -8.5q-42 0 -79 23q-33 20 -55 56q-20 31 -31 69.5t-11 76.5v440q0 12 9 20.5t21 8.5t20.5 -8.5t8.5 -20.5v-215h117q13 0 21.5 -8.5t8.5 -21.5q0 -12 -8.5 -20.5
t-21.5 -8.5h-117z" />
    <glyph glyph-name="u" unicode="u" horiz-adv-x="518" 
d="M455 450q12 0 20.5 -8.5t8.5 -20.5v-196q0 -47 -17.5 -87.5t-48.5 -71.5t-72 -48.5t-87 -17.5q-47 0 -87.5 17.5t-71 48.5t-48 71.5t-17.5 87.5v196q0 12 8.5 20.5t20.5 8.5t20.5 -8.5t8.5 -20.5v-196q0 -34 13 -64.5t35.5 -53t53 -35.5t64.5 -13t64.5 13t53 35.5
t35.5 53t13 64.5v196q0 12 9 20.5t21 8.5z" />
    <glyph glyph-name="v" unicode="v" horiz-adv-x="477" 
d="M451 447q11 -6 15 -17.5t-1 -22.5l-196 -391q-8 -16 -26 -16t-26 16l-196 391q-5 11 -1.5 22.5t14.5 16.5q5 4 13 4q18 0 27 -17l169 -338l169 338q8 17 26 17q7 0 13 -3z" />
    <glyph glyph-name="w" unicode="w" horiz-adv-x="708" 
d="M649 450q12 0 20.5 -9t8.5 -21v-244q0 -36 -14 -68t-38 -56t-56 -38t-68 -14q-45 0 -83.5 21t-62.5 58q-25 -37 -63.5 -58t-83.5 -21q-36 0 -68 14t-56 38t-38 56t-14 68v244q0 12 9 21t21 9t20.5 -9t8.5 -21v-244q0 -24 9.5 -45.5t25 -37.5t37 -25t45.5 -9t45.5 9
t37.5 25t25 37.5t9 45.5v244q0 12 9 21t21 9t20.5 -9t8.5 -21v-244q0 -24 9.5 -45.5t25 -37.5t37 -25t45.5 -9t45.5 9t37.5 25t25 37.5t9 45.5v244q0 12 9 21t21 9z" />
    <glyph glyph-name="x" unicode="x" horiz-adv-x="467" 
d="M432 423q0 -13 -8 -21l-154 -176l154 -176q8 -8 8 -21q-2 -13 -10 -21q-11 -7 -20 -7q-12 0 -22 10l-149 170l-148 -170q-10 -10 -23 -10q-10 0 -19 7q-10 10 -10 21q-2 11 7 21l154 176l-154 176q-8 10 -7 21q0 11 10 21q9 7 19 7q13 0 23 -10l148 -170l149 170
q10 10 22 10q9 0 20 -7q8 -8 10 -21z" />
    <glyph glyph-name="y" unicode="y" horiz-adv-x="515" 
d="M452 449q13 0 21.5 -8.5t8.5 -20.5v-391q0 -48 -15.5 -88t-46.5 -70q-26 -26 -61 -43t-74 -22q-8 -1 -15 -1.5t-15 -0.5q-37 0 -67 10q-17 5 -33 12.5t-30 17.5q-31 21 -52 52q-22 34 -34 77q-3 10 4 22q6 11 18 14q2 0 3.5 0.5t3.5 0.5q10 0 18 -6.5t10 -16.5
q9 -34 26.5 -57.5t39.5 -38.5t46.5 -21.5t47.5 -6.5h11t11 1q27 4 53 16t46.5 32.5t33 49.5t12.5 67v44q-25 -28 -61 -47q-49 -26 -105 -26q-47 0 -87.5 17.5t-71.5 48t-48.5 71t-17.5 87.5v196q0 12 8.5 20.5t21.5 8.5q12 0 20.5 -8.5t8.5 -20.5v-196q0 -34 13 -64.5
t35.5 -53t53 -35.5t64.5 -13t64.5 13t53 35.5t35.5 53t13 64.5v196q0 12 8.5 20.5t20.5 8.5z" />
    <glyph glyph-name="z" unicode="z" horiz-adv-x="412" 
d="M384 30q0 -13 -8.5 -21.5t-20.5 -8.5h-293q-3 0 -5.5 0.5t-5.5 1.5q-1 1 -3 1v1q-2 0 -4 2l-2 2q-3 1 -3 4h-1q-1 1 -1.5 2t-1.5 2q0 2 -0.5 3t-0.5 2v1q-1 1 -1 5q-1 0 -1 3t1 3q0 4 1 6t1 2.5t1 2.5q1 0 1 1t1 2l258 344h-234q-13 0 -21.5 8.5t-8.5 20.5q0 13 8.5 21.5
t21.5 8.5h293q1 0 2 -0.5t2 -0.5q3 0 5 -1t2.5 -1t2.5 -1q1 -1 1.5 -1t1.5 -1h1q0 -1 1 -2l4 -4v-1q2 -2 3 -4l2 -4v-1q0 -1 0.5 -2t0.5 -3v-3v-4q-1 -1 -1 -2t-1 -3q0 -1 -2 -5q0 -1 -2 -3l-258 -344h235q12 0 20.5 -8.5t8.5 -20.5z" />
    <glyph glyph-name="D" unicode="D" horiz-adv-x="503" 
d="M250 450q56 0 106 -27q35 -19 60 -47v289q0 12 8.5 20.5t21.5 8.5q12 0 20.5 -8.5t8.5 -20.5v-440q0 -47 -17.5 -87.5t-48.5 -71.5t-72 -48.5t-87 -17.5q-47 0 -87.5 17.5t-71.5 48.5t-48.5 71.5t-17.5 87.5q0 46 17.5 87t48.5 72t71.5 48.5t87.5 17.5zM416 225
q0 34 -13 64.5t-35.5 53t-53 35.5t-64.5 13t-64.5 -13t-53 -35.5t-35.5 -53t-13 -64.5q0 -35 13 -65t35.5 -52.5t53 -35.5t64.5 -13t64.5 13t53 35.5t35.5 52.5t13 65z" />
    <glyph glyph-name="B" unicode="B" horiz-adv-x="505" 
d="M256 450q46 0 87 -17.5t72 -48.5t48.5 -72t17.5 -87q0 -47 -17.5 -87.5t-48.5 -71.5t-72 -48.5t-87 -17.5q-47 0 -87.5 17.5t-71.5 48.5t-48.5 71.5t-17.5 87.5v439q0 13 9 21.5t21 8.5t20.5 -8.5t8.5 -21.5v-288q28 30 61 47q24 13 51 20t54 7zM256 59q34 0 64.5 13
t53 35.5t35.5 52.5t13 65q0 34 -13 64.5t-35.5 53t-53 35.5t-64.5 13t-64.5 -13t-53 -35.5t-35.5 -53t-13 -64.5q0 -35 13 -65t35.5 -52.5t53 -35.5t64.5 -13z" />
    <glyph glyph-name="C" unicode="C" horiz-adv-x="440" 
d="M183 376q-45 -20 -71.5 -60.5t-26.5 -90.5t26.5 -90.5t71.5 -60.5q33 -15 69 -15q62 0 109 42q10 7 20 7q12 0 22 -10q8 -9 7 -21.5t-10 -20.5q-32 -27 -70 -42q-39 -14 -78 -14q-47 0 -93 20q-62 28 -97 83t-35 122q0 68 35 122.5t97 82.5q46 20 93 20q39 0 78 -14
q38 -15 70 -42q8 -7 10 -21q0 -13 -7 -21q-10 -10 -22 -10t-20 8q-23 20 -51 30.5t-58 10.5q-36 0 -69 -15z" />
    <glyph glyph-name="A" unicode="A" horiz-adv-x="492" 
d="M350 27q-24 -13 -50.5 -20t-54.5 -7q-47 0 -87.5 17.5t-71.5 48.5t-48.5 71.5t-17.5 87.5q0 46 17.5 87t48.5 72t71.5 48.5t87.5 17.5q46 0 87 -17.5t72 -48.5t48.5 -72t17.5 -87v-195q0 -12 -8.5 -21t-21.5 -9q-12 0 -20.5 9t-8.5 21v44q-25 -28 -61 -47zM79 225
q0 -34 13 -64.5t35.5 -53t53 -35.5t64.5 -13t64.5 13t53 35.5t35.5 53t13 64.5t-13 64.5t-35.5 53t-53 35.5t-64.5 13t-64.5 -13t-53 -35.5t-35.5 -53t-13 -64.5z" />
  </font>
</defs>
</svg>
